# xmcd CD database file
#
# Track frame offsets:
#	150
#	14415
#	53918
#	105105
#	119754
#	159426
#	185211
#	210447
#	233970
#	286305
#
# Disc length: 3996 seconds
#
# Revision: 0
# Processed by: cddbd v1.5.2PL0 Copyright (c) Steve Scherf et al.
# Submitted via: CDex 1.51
#
DISCID=880f9a0a
DTITLE=Monk Thelonius - Perfect
DYEAR=2007
DGENRE=Jazz
TTITLE0='round midnight
TTITLE1=evidence
TTITLE2=blue monk
TTITLE3=just a gigolo
TTITLE4=bolivar blues
TTITLE5=epistrophy
TTITLE6=ruby my dear
TTITLE7=off minor
TTITLE8=well you needn't 
TTITLE9=thelonius
EXTD=YEAR: 2007
EXTT0=
EXTT1=
EXTT2=
EXTT3=
EXTT4=
EXTT5=
EXTT6=
EXTT7=
EXTT8=
EXTT9=
PLAYORDER=
